PathFileType	4	(X/Y/Z)	60_1_3_p0_0-249_filt_butterworth.trc
DataRate	CameraRate	NumFrames	NumMarkers	Units	OrigDataRate	OrigDataStartFrame	OrigNumFrames
50.0	50.0	5	27	m	50.0	186	249
Frame#	Time	RHip			RKnee			RAnkle			RBigToe			RSmallToe			RHeel			LHip			LKnee			LAnkle			LBigToe			LSmallToe			LHeel			Neck			Head			Nose			RShoulder			RElbow			RWrist			RThumb			RIndex			RPinky			LShoulder			LElbow			LWrist			LThumb			LIndex			LPinky			
		X1	Y1	Z1	X2	Y2	Z2	X3	Y3	Z3	X4	Y4	Z4	X5	Y5	Z5	X6	Y6	Z6	X7	Y7	Z7	X8	Y8	Z8	X9	Y9	Z9	X10	Y10	Z10	X11	Y11	Z11	X12	Y12	Z12	X13	Y13	Z13	X14	Y14	Z14	X15	Y15	Z15	X16	Y16	Z16	X17	Y17	Z17	X18	Y18	Z18	X19	Y19	Z19	X20	Y20	Z20	X21	Y21	Z21	X22	Y22	Z22	X23	Y23	Z23	X24	Y24	Z24	X25	Y25	Z25	X26	Y26	Z26	X27	Y27	Z27	
186	3.72	0.3529201639430778	0.6720764024424932	0.6816180983134719	0.33984003590735823	0.20655184273493088	0.7639720696976782	0.3273407791521732	-0.17936259217434355	0.7736612832416531	0.2847339503929964	-0.21041750579248497	0.6074144633361367	0.3527076091159381	-0.20189648686736392	0.6118132533406218	0.29531290027103213	-0.26305324950605935	0.865294694890046	0.1272024527427487	0.6825185140589446	0.7017020111157279	0.12249483668439574	0.2297535255214853	0.7523781741725627	0.12423485915666413	-0.17858250738483328	0.779247413068605	0.1250879848666967	-0.18250685244750212	0.5839460213884587	0.0706192911693406	-0.20132079279466775	0.6468187564132327	0.14348245950469182	-0.2367020350561371	0.8215497885372693	0.262294694922954	1.2333246174394406	0.6535347898198776	0.2552084155539093	1.4805101025310685	0.6120394356616912	0.25301377050150947	1.3383618142946732	0.5059611183983275	0.43151200096200026	1.153628400643964	0.6927867048386266	0.45947252402738686	0.8831378256032383	0.674947503180805	0.4644009361455785	0.6328553297559676	0.663208664066905	0.39653829313651534	0.48573956766377424	0.6407198464726824	0.4172009518769566	0.4520714541860792	0.6623564831907232	0.46101587272685385	0.449131875399789	0.7056426591456475	0.08918111924882854	1.1686633113995957	0.7165190638348558	0.043119370943366084	0.9122138453415998	0.6917791065344903	-0.0024664705612832513	0.6731938050774258	0.7111770431146174	0.04674934290541406	0.561094462452607	0.653344269582968	0.0008716690882929045	0.5199416619380969	0.6985913492938168	-0.005214834817012098	0.5271059487830847	0.7093774807478198	
187	3.74	0.35286798623944526	0.6719560365812927	0.6814392951114627	0.3397892469198463	0.20694814548912685	0.7638934037142768	0.32700738219314424	-0.18009299924359132	0.7753849199167826	0.2847109470628353	-0.21040821221236106	0.607433430690105	0.35265234697812675	-0.2022989966248723	0.6116334012522269	0.2952392517326951	-0.2636322975941653	0.8667104107735943	0.12717472609402122	0.6824970047952091	0.7017138515399228	0.12244197556356679	0.23005033751884094	0.752270314452251	0.1245040269237492	-0.17881446471351242	0.7800578603971738	0.12583161244966135	-0.1805933627946592	0.581248733499119	0.0706040902305907	-0.20136570943761067	0.646816656064166	0.14343219004132893	-0.23665975096286587	0.8217062586510515	0.26224059465027066	1.2340639282473738	0.6535122517796421	0.255185364944725	1.4806594320554358	0.6121077053605821	0.2530864408655095	1.3383749641714462	0.5062216287776421	0.4315176384041546	1.1536307312019263	0.6927983713508857	0.45948840467738156	0.8830498469958898	0.6749469446368004	0.4646679780490921	0.6336827795854337	0.6620493367835976	0.396616379086159	0.48674944040455614	0.6407968005324617	0.41733914103256264	0.4522975173062662	0.6618835660899947	0.46086600376225006	0.4480055695965952	0.7072328745953794	0.08916269758951151	1.1693319487267289	0.7164421448731702	0.04160627741127958	0.9128042024314763	0.6898446595798777	-0.0021063320081356894	0.6728068857558165	0.709880797410975	0.04742181679644515	0.5613426363651859	0.6508387574237189	0.001042774945804869	0.5196608043047528	0.6982304576396711	-0.005319731745026819	0.5262725908162373	0.7093456913939075	
188	3.76	0.35286078060938736	0.6718373197786326	0.6814043281186144	0.3397338518510452	0.20745542999313796	0.7638014005830155	0.3265524215413134	-0.1809077888549381	0.7773460389181085	0.28472375478850326	-0.21043008632218477	0.6075034160974835	0.3526969583780183	-0.20247389215078682	0.6117036787931716	0.29526062755723337	-0.26426978967082726	0.8680390636153001	0.12715471079663257	0.6824830590387901	0.7017105646001012	0.1224000516596676	0.23026625050741803	0.7521742383952456	0.12476392080621115	-0.1788679648464267	0.7804610051111038	0.12661035370049448	-0.17894770921173997	0.5791056137865546	0.07061163399820466	-0.20135456991668804	0.6467792157364919	0.1433505331660664	-0.23660827928099623	0.8217529979790618	0.26217797628379125	1.234842481094028	0.6534728556005313	0.2551609632241043	1.4805006222156787	0.612106437210423	0.2533674603140954	1.3383591247719167	0.5072445991807594	0.4315178686198405	1.153637170457269	0.6928114182508085	0.4595604452125812	0.8831707494201034	0.6745944351127278	0.4651628724223946	0.6344454616281372	0.6598549142170185	0.39668747148042016	0.48768172465950427	0.6409451113041091	0.41795489873346914	0.45271652086832714	0.6609270247467915	0.4608227556672565	0.44750992264800327	0.7077292055091772	0.08913544554251948	1.170077916322289	0.7164027472685346	0.04033125744944169	0.9132535126476623	0.6888317551705414	-0.0014083488537349623	0.6726916134459523	0.7077377499040649	0.04801020035373199	0.5620341542848534	0.648447940068582	0.001577389528312257	0.520082630838808	0.6968232087375339	-0.005421189690918347	0.5255621078280127	0.7092845397291593	
189	3.78	0.3528661248948112	0.6717805372780665	0.68142109123612	0.3396636282069492	0.20796509165313917	0.763699677004728	0.3260159489583516	-0.18168694870367694	0.7791173717768212	0.2847394733813435	-0.21045025571076004	0.6075798682795334	0.35276188806923364	-0.20245977116662767	0.6119343665985827	0.2954345575205411	-0.2648129897488757	0.8690080726013082	0.127144679980958	0.6824779541332038	0.7016891944532014	0.12238162512284748	0.2303071203836396	0.7521203255706659	0.12493335306082146	-0.17881860941895367	0.7805268476209715	0.12729411984344416	-0.17754627940533868	0.5772305579925361	0.0706444829801311	-0.20126643156164326	0.646689473134207	0.14327522963025544	-0.23657523494706328	0.821622619386851	0.2621547991660981	1.2355821831970057	0.6532965894503557	0.2551441029216541	1.4800707224124665	0.6121128966936331	0.2538388511655498	1.338313228654528	0.5089458810839143	0.431508699700882	1.1536507834143441	0.6928238292317546	0.45948502895713284	0.8835110613053742	0.6746610126233741	0.465852742778183	0.6351347049675424	0.6569112125842207	0.39672324490924715	0.4883684913457472	0.6410537291240321	0.4188963681420057	0.4532796263835974	0.6595435623870334	0.46087182347388356	0.44755459087552785	0.7074241450140214	0.08910296425255844	1.170798064019041	0.7164086136159418	0.03956522663411799	0.9133388364644023	0.6884767511961378	-0.0004954492224737735	0.6728489508031015	0.7051091418059956	0.048388820915606326	0.563076917949273	0.6465064930917325	0.0024387281628065315	0.5210215681954861	0.694571079597368	-0.00547667207104292	0.5250366215223047	0.7091929362082277	
190	3.8	0.3528650225858626	0.6718208144281396	0.6814330702449581	0.3395891511608491	0.20839243623509737	0.7635883949846862	0.3254638667637213	-0.1823530580290096	0.7804153656255548	0.28472643664377784	-0.21048044754886097	0.6076416059362854	0.35280044692220586	-0.20227564695302813	0.6122161465359443	0.2956556345391517	-0.2653032901993997	0.86975315567382	0.12714168517107957	0.682481052649779	0.7016625650173622	0.12238733265032503	0.23019156282470962	0.7521106880389987	0.12488233098323909	-0.178648893435883	0.7802720362793025	0.1277387643870238	-0.17649719395270536	0.5760558734566663	0.07069180280145237	-0.20113048128935232	0.64657269588464	0.1432204680390281	-0.23660661351814938	0.8213831613947175	0.2622165458284172	1.2361945642201666	0.6528862291328679	0.2551420451085474	1.4794505048594246	0.6121618300657925	0.2544176405047395	1.3382441702101795	0.511036258449071	0.4314900334303298	1.1536683507293808	0.6928357641722968	0.45912895086283123	0.8839253707211879	0.6757459009713822	0.46667939390652	0.6359379440009321	0.6535531279757291	0.39673518878274233	0.48863918879092905	0.6410484023498781	0.4199796519865862	0.4537834364733847	0.6582693889796934	0.4609016150390788	0.44798961545467086	0.7070333879717465	0.08906854197040084	1.1713982405061114	0.7164722175956644	0.039331193043445595	0.913022994058435	0.6883975917600824	0.0005076071861127897	0.6732697913341482	0.7023635873041687	0.04854945526927818	0.5641709132544749	0.6453449723893468	0.003497986575600448	0.5221895272343654	0.691848555858502	-0.005479291847147649	0.52475330861422	0.7090926507890021	
